<svg width="191" height="165" viewBox="0 0 191 165" fill="none" xmlns="http://www.w3.org/2000/svg">
<g clip-path="url(#clip0_13_110)">
<path d="M49.7004 29.9696C48.4874 28.874 46.2178 28.9523 46.2178 31.1044C46.2178 33.6087 47.9787 40.1825 51.383 39.7912C52.4395 39.7129 50.9134 31.0653 49.7004 29.9696Z" fill="#FFE5DF"/>
<path d="M79.9476 134.015C79.9476 134.015 82.3737 140.668 82.8432 146.498C83.3128 152.328 77.9129 155.654 73.7651 156.476C69.6174 157.298 59.0524 156.476 56.3916 156.476C53.7308 156.476 43.1657 156.359 34.7529 151.154C30.7616 148.141 30.2921 146.146 29.8616 143.485C29.4312 140.824 25.2052 117.503 23.2096 95.1597C23.64 93.6728 38.7441 81.2687 38.7441 81.2687L40.9745 87.4903L45.4353 117.816C45.4353 117.816 48.6439 132.255 49.3091 132.489C49.9743 132.724 64.1784 138.046 67.6218 137.263C71.0652 136.52 79.9476 134.015 79.9476 134.015Z" fill="#5B5C66"/>
<path d="M57.9567 47.3041C57.9567 47.3041 58.1132 52.7822 57.2133 53.9952C56.3133 55.2083 73.4912 57.5561 76.0346 56.8126C76.0346 56.8126 76.0346 50.904 76.0346 48.7127C76.0346 47.6954 57.9567 47.3041 57.9567 47.3041Z" fill="#FFE5DF"/>
<path d="M107.925 62.1733C107.925 62.1733 108.278 67.7689 108.708 70.3514C109.138 72.8949 110.821 74.2253 112.582 74.8122C114.343 75.3992 118.373 75.1644 122.247 74.8122C126.121 74.4601 129.251 74.8122 130.034 78.4904C130.816 82.1686 128.273 119.342 126.59 126.346C124.908 133.35 99.082 120.672 99.082 120.672L88.1257 87.6859L89.8866 77.0426C89.8866 77.0426 94.6604 76.6122 95.1299 76.4948C95.5995 76.3774 97.556 75.4774 97.0864 71.2906C96.6169 67.1037 96.7343 64.9515 96.7343 64.9515L107.925 62.1733Z" fill="#FFE5DF"/>
<path d="M73.2956 3.67449C73.2956 3.67449 69.2652 -0.0428291 61.048 1.28758C53.1438 2.57886 46.3352 11.383 47.1178 19.4438C47.783 26.4088 49.3091 30.5566 49.5439 33.9217C49.7786 37.2478 50.0917 45.5824 59.3263 48.478C68.5609 51.3736 75.4477 51.5692 79.4389 48.478C83.4302 45.3867 90.8648 28.7175 91.3344 21.4785C91.7648 14.2786 88.2431 8.05701 84.1345 4.92664C79.9476 1.79627 73.2956 3.67449 73.2956 3.67449Z" fill="#835C50"/>
<path d="M94.0734 27.0349C94.0734 27.0349 87.1866 25.1176 83.3128 31.3392C79.4389 37.5608 77.7955 46.2867 82.1389 53.6431C86.2084 60.53 89.8474 68.982 100.647 66.6733C111.447 64.3647 115.986 60.1387 115.634 49.4563C115.282 38.7738 113.756 33.9218 108.434 28.9132C103.112 23.9046 97.4386 24.6872 94.0734 27.0349Z" fill="#FB9A64"/>
<path d="M122.482 74.4992C123.147 74.4992 125.416 74.5775 125.964 74.6949C126.355 74.7731 126.512 74.8514 126.473 76.0253C126.434 77.5122 125.847 85.9251 125.847 90.5815C125.847 95.2379 125.064 107.486 124.477 111.32C123.929 115.155 122.677 130.142 134.847 135.894C147.016 141.646 156.172 138.711 175.424 149.55C187.593 156.476 190.098 157.806 190.567 158.276C191.076 158.785 190.059 160.037 186.576 160.858C183.093 161.68 166.737 167.197 148.855 162.267C141.616 160.193 131.442 160.193 127.295 160.937C123.147 161.68 110.391 162.502 102.799 158.941C101.039 157.924 98.7299 159.019 98.0647 159.176C97.3995 159.332 81.3954 163.597 74.3912 160.937C67.387 158.276 70.5565 153.346 75.5651 149.785C80.5737 146.185 92.6257 135.698 95.4039 129.476C95.4821 127.637 96.4995 124.468 94.8169 117.581C93.1343 110.655 87.8127 100.325 86.6388 86.512C86.404 79.3513 86.991 77.2774 86.991 77.2774L91.9996 76.6122C91.9996 76.6122 93.6039 93.9467 94.4648 98.8379C95.3256 103.768 106.36 104.746 110.508 103.768C114.656 102.751 120.134 101.107 119.821 95.7858C119.469 90.4641 120.916 77.5513 121.151 76.2209C121.386 74.8905 121.777 74.4992 122.482 74.4992Z" fill="white"/>
<path d="M77.7563 58.8473L52.9481 56.1865C52.9481 56.1865 40.0744 60.8821 38.744 61.7429C39.2527 63.269 38.5484 81.5034 38.1179 84.5164C37.6875 87.5294 37.1006 99.5031 37.4527 104.16C37.8049 108.816 36.5528 122.942 36.6702 126.033C36.7875 129.124 37.1006 133.468 41.5614 135.346C46.0221 137.224 51.3438 140.12 63.787 139.689C76.2303 139.259 80.1041 135.698 81.1215 134.368C82.1388 133.037 82.6867 130.494 82.6867 129.163C82.6867 127.833 83.391 108.19 84.0562 103.846C84.7214 99.5031 86.2866 85.8468 86.4431 84.2034C86.5996 82.5599 91.8821 67.5733 92.43 66.5559C92.9386 65.5385 81.5519 59.9038 77.7563 58.8473Z" fill="#E5EAF4"/>
<path d="M127.295 134.407C127.295 134.407 131.286 135.776 132.303 131.042C133.321 126.307 133.634 121.964 127.255 120.711C125.182 120.32 127.295 134.407 127.295 134.407Z" fill="#FFE5DF"/>
<path d="M58.7002 53.1344C60.5785 53.8388 66.9566 56.2648 75.4869 54.8562C76.1912 54.5822 76.5825 55.1692 76.7782 55.5605C76.9738 55.9909 78.0694 57.9083 78.3433 59.1995C78.3433 59.7082 77.0129 60.4126 75.839 60.7256C74.6652 61.0386 66.4088 62.643 60.148 60.53C53.8873 58.3778 53.0264 57.3213 52.7917 56.9692C52.4395 56.4213 53.2612 55.5996 54.2003 54.5822C54.8264 53.8779 56.1959 52.8997 56.6264 52.704C57.1742 52.5084 56.9785 52.5084 58.7002 53.1344Z" fill="#CFD9ED"/>
<path d="M86.5996 84.9469C86.5996 84.9469 95.8734 106.351 96.7342 108.346C97.5951 110.342 104.13 120.164 110.43 125.016C116.729 129.868 123.069 134.563 127.803 135.072C129.368 135.072 130.542 126.894 129.368 122.59C127.803 120.437 124.516 119.616 122.208 117.855C118.099 114.685 112.503 111.32 109.099 102.438C105.695 93.5554 95.6777 71.2515 92.3908 66.5559C89.8865 69.0602 85.9736 80.8774 86.5996 84.9469Z" fill="#CFD9ED"/>
<path d="M38.7441 61.7821C38.7441 61.7821 31.3486 69.3341 28.6486 72.9341C25.9487 76.534 16.988 84.7121 18.4749 91.2076C19.9618 97.7032 23.3661 97.7032 25.4008 96.9988C28.6486 95.8641 36.8267 84.3208 38.2354 82.873C39.644 81.3861 39.3701 63.6603 38.7441 61.7821Z" fill="#CFD9ED"/>
<path d="M38.3919 132.959C38.3919 132.959 37.9614 134.211 38.2745 135.737C38.5093 136.755 46.7656 140.785 50.9916 141.489C57.3306 142.546 74.5868 143.367 81.278 138.202C81.3954 136.755 81.0432 135.228 80.7693 134.759C79.9476 134.798 75.3303 139.494 62.9653 139.572C55.1785 139.768 46.57 138.124 38.3919 132.959Z" fill="#41424D"/>
<path d="M88.517 46.4433C88.517 46.4433 88.5952 44.9172 86.4822 43.939C82.804 42.2173 80.6128 46.0128 82.0606 48.8302C82.8823 50.4736 85.0344 50.4345 85.3083 50.7475C85.5431 51.0214 88.517 46.4433 88.517 46.4433Z" fill="#EFB179"/>
<path d="M95.9516 57.2431C96.382 55.5996 96.6168 54.4257 96.4603 53.4866C96.2646 52.2736 93.9951 50.3171 93.1734 51.5301C92.6647 52.2736 89.9256 59.5517 92.2734 60.53C94.6212 61.5082 95.169 59.5126 95.169 59.5126C95.169 59.5126 95.4038 59.2387 95.9516 57.2431Z" fill="#EFB179"/>
<path d="M91.4126 58.5735C91.4126 58.5735 91.1778 57.7909 91.9996 55.7953C93.1343 52.978 95.2082 52.3128 93.2517 49.7302C92.2735 48.478 91.3343 48.3607 91.0604 48.3607C90.0039 48.3998 88.7127 50.1998 88.3214 51.0997C87.8127 52.078 87.5779 55.8736 91.4126 58.5735Z" fill="#E28F5F"/>
<path d="M85.5431 50.9823C85.191 50.1997 83.3127 47.8519 80.8084 47.1085C78.3041 46.365 76.6998 47.6172 76.6607 49.065C76.6216 50.5519 77.4824 51.6084 78.852 51.9605C80.2606 52.3127 84.9953 54.5431 86.2475 53.7214C86.7562 53.4083 85.8562 51.7649 85.5431 50.9823Z" fill="#E28F5F"/>
<path d="M86.7952 53.9562C86.13 53.3692 85.4257 52.4301 85.2692 50.0432C85.1909 48.2432 87.1083 45.6216 87.9691 45.2303C88.2039 45.1129 89.0647 45.5433 89.8082 46.1302C90.8647 46.952 91.256 48.0867 91.2169 48.9084C91.1778 49.8476 89.8473 50.7475 89.3387 52.1953C88.7126 53.9953 88.7517 54.9344 88.7517 54.9344C88.7517 54.9344 87.4604 54.5431 86.7952 53.9562Z" fill="#F9C7B1"/>
<path d="M102.408 62.5256C102.682 61.3125 103.543 60.2952 103.778 59.5908C104.091 58.6517 101.743 57.2039 101.156 58.2604C100.804 58.8865 99.1211 63.6603 101.156 64.0516C102.017 64.2081 102.017 64.2081 102.408 62.5256Z" fill="#EFB179"/>
<path d="M100.256 64.0908C100.256 64.0908 100.021 63.4647 100.53 61.8212C101.234 59.4735 102.878 58.7691 101.078 56.8518C100.178 55.9127 99.4342 55.8735 99.1994 55.9127C98.3777 56.03 97.4385 57.5561 97.1646 58.2996C96.8907 59.1213 96.969 62.1734 100.256 64.0908Z" fill="#E28F5F"/>
<path d="M96.3038 61.3908C95.7169 60.9604 94.9343 59.5908 94.6604 57.6735C94.4647 56.2257 95.8343 53.9562 96.4603 53.604C96.656 53.4866 97.3603 53.7605 98.0255 54.1909C98.9646 54.7779 99.3168 55.6387 99.3559 56.3431C99.3951 57.1257 98.3777 57.9083 98.0646 59.1213C97.6734 60.6082 97.9081 62.056 97.9081 62.056C97.9081 62.056 96.8908 61.8212 96.3038 61.3908Z" fill="#F9C7B1"/>
<path d="M93.9952 58.9648C93.9952 58.9648 88.1649 61.1169 85.6214 60.4126C83.391 59.7865 81.0041 56.7344 81.7476 55.6388C82.0606 55.1692 86.2475 55.9518 89.8083 57.0474C90.4735 57.2431 91.9604 58.1431 92.5865 58.3779C93.8778 58.8865 93.9952 58.9648 93.9952 58.9648Z" fill="#F9C7B1"/>
<path d="M90.2387 57.2039C90.2387 57.2039 88.6735 53.8779 86.3258 53.3692C82.491 52.5084 77.952 49.9258 77.6781 51.178C77.4042 52.3519 78.9694 54.2301 80.8867 55.2475C82.8041 56.2648 84.2127 56.8126 86.717 56.9692C89.2213 57.1257 90.2387 57.2039 90.2387 57.2039Z" fill="#EFB179"/>
<path d="M97.0864 61.8212C97.1255 61.5864 96.4603 60.256 95.5603 59.63C94.7386 59.0821 93.956 58.5735 92.743 59.0039C89.6908 60.0995 88.7517 59.9039 85.8561 60.3343C85.0735 60.4517 85.5822 61.8603 86.3648 62.8386C87.3822 64.1299 89.2604 64.482 91.6865 64.3255C96.069 64.0907 97.0081 62.2908 97.0864 61.8212Z" fill="#E28F5F"/>
<path d="M101.899 64.6386C101.117 65.9299 100.099 67.4559 98.6125 67.8863C96.8908 68.395 93.8778 66.9864 93.7995 65.6951C93.7604 65.1864 96.7342 63.856 99.4733 63.1125C99.982 62.956 100.647 62.9951 101.117 63.1125C102.291 63.4647 102.173 64.2081 101.899 64.6386Z" fill="#F9C7B1"/>
<path d="M100.334 62.9951C100.334 62.9951 97.4385 60.7256 95.7951 61.5082C93.1343 62.7995 89.2604 63.5821 89.8082 64.7169C90.3561 65.7734 92.3126 66.3994 93.956 66.2038C95.5994 66.0081 96.7342 65.7342 98.2211 64.5603C99.7472 63.4647 100.334 62.9951 100.334 62.9951Z" fill="#EFB179"/>
<path d="M89.1431 58.417C89.2213 58.417 89.2996 58.4561 89.417 58.4561C89.9648 58.5344 90.4735 58.1431 90.5517 57.5952C90.63 57.1648 90.3952 56.7735 90.0039 56.5779C90.1604 56.4605 90.2778 56.2648 90.3169 56.0692C90.3952 55.6388 90.0822 55.2083 89.6126 55.1301C89.3387 55.0909 89.0648 55.2083 88.8691 55.404C88.7126 55.1301 88.4387 54.9344 88.1257 54.8953C87.617 54.8562 87.1474 55.2083 87.1083 55.7561C87.1083 55.8735 87.1083 55.9518 87.1474 56.0301C86.717 56.0692 86.3257 56.4214 86.2475 56.8909C86.1692 57.4387 86.5605 57.9474 87.1083 58.0257C87.1474 58.0257 87.2257 58.0257 87.2648 58.0257C87.2648 58.0648 87.2257 58.1039 87.2257 58.1822C87.1474 58.73 87.5387 59.2387 88.0866 59.3169C88.5561 59.3561 89.0648 58.9648 89.1431 58.417Z" fill="#FFE7EC"/>
<path d="M98.5733 61.5082C98.5733 61.5082 98.5733 61.4691 98.5733 61.5082C98.6516 61.5082 98.7299 61.5473 98.8081 61.5473C99.3168 61.6256 99.7864 61.3126 99.8646 60.8039C99.9429 60.4126 99.7472 60.0213 99.3951 59.8256C99.5516 59.7082 99.669 59.5517 99.669 59.3561C99.7472 58.9256 99.4733 58.5343 99.0429 58.4952C98.769 58.4561 98.5342 58.5343 98.3777 58.73C98.2603 58.4561 97.9864 58.2604 97.7125 58.2213C97.2429 58.143 96.8125 58.4952 96.7342 58.9648C96.7342 59.043 96.7342 59.1604 96.7342 59.2387C96.3038 59.2778 95.9517 59.5517 95.8734 59.9821C95.7951 60.4908 96.1082 60.9604 96.6169 61.0386C96.656 61.0386 96.6951 61.0386 96.7734 61.0386C96.7734 61.0778 96.7342 61.1169 96.7342 61.156C96.656 61.6647 96.969 62.1343 97.4777 62.2125C98.0255 62.3299 98.4951 62.0169 98.5733 61.5082Z" fill="white"/>
<path d="M106.321 59.2778C105.108 61.5474 103.269 62.2908 103.269 62.2908C103.269 62.2908 102.917 60.3343 104.169 58.1039C105.382 55.8344 107.73 54.1519 107.73 54.1519C107.73 54.1519 107.534 57.0083 106.321 59.2778Z" fill="#A9C7AE"/>
<path d="M81.9432 46.8346C83.4693 47.5389 84.0562 48.6737 84.0562 48.6737C84.0562 48.6737 82.8041 48.9867 81.278 48.2824C79.752 47.578 78.5389 46.1694 78.5389 46.1694C78.5389 46.1694 80.4172 46.1694 81.9432 46.8346Z" fill="#A9C7AE"/>
<path d="M81.1997 48.3215C82.9997 48.0476 84.1736 48.7911 84.1736 48.7911C84.1736 48.7911 83.2345 49.8085 81.4345 50.0824C79.6345 50.3563 77.678 49.7302 77.678 49.7302C77.678 49.7302 79.3997 48.5954 81.1997 48.3215Z" fill="#848E86"/>
<path d="M107.378 61.3517C105.343 62.9168 103.386 62.9168 103.386 62.9168C103.386 62.9168 103.856 60.9995 105.891 59.3952C107.925 57.83 110.743 57.2039 110.743 57.2039C110.743 57.2039 109.412 59.7865 107.378 61.3517Z" fill="#848E86"/>
<path d="M105.695 61.5865C105.695 61.5474 105.695 61.5474 105.695 61.5865C105.695 61.5082 105.734 61.3908 105.773 61.2734C105.891 60.6474 105.499 60.0604 104.873 59.943C104.365 59.8648 103.895 60.0996 103.66 60.4908C103.543 60.2952 103.308 60.1778 103.073 60.1387C102.565 60.0604 102.095 60.3735 101.978 60.8821C101.899 61.1952 102.017 61.5082 102.252 61.743C101.938 61.8995 101.665 62.1734 101.625 62.5647C101.547 63.1517 101.938 63.6995 102.525 63.7777C102.643 63.7777 102.76 63.7777 102.878 63.7777C102.917 64.2864 103.269 64.756 103.778 64.8342C104.404 64.9516 104.991 64.5603 105.108 63.9343C105.108 63.856 105.108 63.8169 105.108 63.7777C105.147 63.7777 105.225 63.8169 105.264 63.8169C105.891 63.9343 106.478 63.543 106.595 62.9169C106.712 62.2908 106.321 61.6647 105.695 61.5865Z" fill="#F1EAEA"/>
<path d="M103.308 67.6515C103.308 67.6124 103.308 67.6124 103.308 67.6515C103.386 67.6515 103.504 67.6907 103.582 67.7298C104.208 67.8472 104.756 67.4168 104.873 66.8298C104.951 66.3603 104.717 65.8907 104.325 65.6559C104.521 65.5385 104.638 65.3038 104.678 65.069C104.756 64.5603 104.443 64.0907 103.934 64.0125C103.621 63.9734 103.308 64.0907 103.112 64.2864C102.956 63.9734 102.643 63.7386 102.291 63.6603C101.704 63.5821 101.195 64.0125 101.117 64.5994C101.117 64.7168 101.117 64.8342 101.117 64.9125C100.608 64.9516 100.178 65.3038 100.099 65.8516C99.982 66.4385 100.412 67.0255 100.999 67.1429C101.039 67.1429 101.117 67.1429 101.156 67.1429C101.156 67.182 101.117 67.2602 101.117 67.2994C100.999 67.8863 101.43 68.4733 102.017 68.5907C102.643 68.6298 103.23 68.2385 103.308 67.6515Z" fill="white"/>
<path d="M106.517 64.7169C106.517 64.6777 106.556 64.5995 106.595 64.5212C106.712 64.1299 106.517 63.7386 106.125 63.6212C105.812 63.543 105.538 63.6212 105.343 63.856C105.265 63.7386 105.147 63.6212 105.03 63.5821C104.717 63.4647 104.404 63.6604 104.286 63.9734C104.208 64.169 104.286 64.3647 104.404 64.5212C104.208 64.5995 104.012 64.756 103.934 64.9908C103.817 65.3429 104.051 65.7342 104.404 65.8125C104.482 65.8125 104.56 65.8516 104.599 65.8516C104.56 66.1647 104.756 66.4777 105.069 66.5951C105.421 66.7125 105.851 66.5168 105.969 66.1255C105.969 66.0864 105.969 66.0473 106.008 66.0081C106.047 66.0081 106.086 66.0473 106.086 66.0473C106.438 66.1647 106.869 65.969 106.986 65.5777C107.104 65.2256 106.869 64.8343 106.517 64.7169Z" fill="#FFE7EC"/>
<path d="M85.6214 50.7084C85.6996 50.7084 85.7779 50.7475 85.8953 50.7475C86.4431 50.8258 86.9518 50.4345 87.0301 49.8867C87.1083 49.4563 86.8735 49.065 86.4822 48.8693C86.6388 48.7519 86.7561 48.5563 86.7953 48.3606C86.8735 47.9302 86.5605 47.4998 86.0909 47.4215C85.817 47.3824 85.5431 47.4998 85.3475 47.6954C85.191 47.4215 84.917 47.2259 84.604 47.1867C84.0953 47.1476 83.6258 47.4998 83.5866 48.0476C83.5866 48.165 83.5866 48.2432 83.6258 48.3215C83.1953 48.3606 82.8041 48.7128 82.7258 49.1823C82.6475 49.7302 83.0388 50.2389 83.5866 50.3171C83.6258 50.3171 83.704 50.3171 83.7432 50.3171C83.7432 50.3562 83.704 50.3954 83.704 50.4736C83.6258 51.0214 84.0171 51.5301 84.5649 51.6084C85.0344 51.6475 85.5431 51.2562 85.6214 50.7084Z" fill="white"/>
<g clip-path="url(#clip1_13_110)">
<path d="M25.6322 46.1731C25.6322 46.1731 33.4816 28.8137 23.3453 22.6502C13.0539 16.447 14.6616 33.2208 16.5496 36.2714C16.5496 36.2714 4.05645 26.2164 1.71069 34.9973C-0.635064 43.7782 18.0233 50.0268 25.6322 46.1731Z" fill="#FFC7CC"/>
</g>
<path d="M36.8481 21.4919C36.8481 21.4919 39.2587 13.3287 37.4488 10.9337C33.954 6.30939 33.517 13.8339 34.0392 15.5054C34.0392 15.5054 29.9538 8.80516 28.5231 12.1388C27.0925 15.4724 33.7394 21.7054 36.8481 21.4919Z" fill="#FFC7CC"/>
<path d="M126.951 68.4913C126.951 68.4913 136.598 62.2613 136.853 58.2193C137.346 50.4146 130.28 57.7274 129.344 59.8965C129.344 59.8965 131.058 49.4488 126.662 51.6005C122.267 53.7522 123.583 65.9751 126.951 68.4913Z" fill="#FFC7CC"/>
<g clip-path="url(#clip2_13_110)">
<path d="M156.324 68.7871C156.324 68.7871 177.44 70.5482 177.978 58.5113C178.557 46.3793 163.028 53.6036 161.081 56.5465C161.081 56.5465 164.178 40.9278 154.377 41.6479C144.642 42.3408 148.486 62.6698 156.324 68.7871Z" fill="#FFC7CC"/>
</g>
<g clip-path="url(#clip3_13_110)">
<path d="M142.838 96.636C142.838 96.636 153.617 92.8244 151.736 86.5105C149.854 80.1385 144.882 87.3252 144.614 89.2747C144.614 89.2747 143.136 80.5458 139.328 83.1063C136.5 85.0083 139.328 94.136 142.838 96.636Z" fill="#FFC7CC"/>
</g>
<g clip-path="url(#clip4_13_110)">
<path d="M29.731 65.4302C29.731 65.4302 20.5778 72.2816 16.3697 67.2124C12.1132 62.111 20.851 61.9637 22.6218 62.8221C22.6218 62.8221 16.181 56.748 20.424 55.0019C23.5758 53.7048 29.5991 61.1233 29.731 65.4302Z" fill="#FFC7CC"/>
</g>
</g>
<defs>
<clipPath id="clip0_13_110">
<rect width="191" height="165" fill="white"/>
</clipPath>
<clipPath id="clip1_13_110">
<rect width="27.5601" height="25.3103" fill="white" transform="translate(-1 36.1992) rotate(-42.3421)"/>
</clipPath>
<clipPath id="clip2_13_110">
<rect width="32" height="25" fill="white" transform="translate(151.957 39.636) rotate(23.4705)"/>
</clipPath>
<clipPath id="clip3_13_110">
<rect width="17" height="18" fill="white" transform="translate(138 82.636)"/>
</clipPath>
<clipPath id="clip4_13_110">
<rect width="14" height="14" fill="white" transform="matrix(-0.554998 0.831852 0.831852 0.554998 20.77 53.636)"/>
</clipPath>
</defs>
</svg>
