<svg width="65" height="65" viewBox="0 0 65 65" fill="none" xmlns="http://www.w3.org/2000/svg">
<g clip-path="url(#clip0_10_67)">
<path d="M41.309 32.1734C41.309 32.1734 61.7989 33.9392 57.7709 46.3862C53.8066 58.8021 39.4963 44.9603 37.6619 41.5179C37.6619 41.5179 42.7318 56.9437 30.7434 60.6547C18.8187 64.3346 26.0511 42.4434 26.0511 42.4434C26.0511 42.4434 16.46 59.4921 7.142 50.2348C-2.14498 41.0413 15.32 31.9036 18.8978 32.2894C18.8978 32.2894 1.33586 26.3382 7.45476 17.051C13.5737 7.7638 23.3506 18.6107 25.154 21.9893C25.154 21.9893 19.5153 9.44204 31.8534 5.63964C44.1604 1.77353 38.7598 18.2001 36.9854 21.1929C36.9854 21.1929 49.9335 7.47558 55.9843 13.9095C62.0351 20.3435 52.5686 31.4978 41.309 32.1734Z" fill="#F5D6D9"/>
<path d="M31.9702 40.191C31.9702 40.191 33.6666 53.8701 31.7667 53.6919C29.8667 53.5137 30.4574 39.3512 30.4574 39.3512L31.9702 40.191Z" fill="#695154"/>
<path d="M23.0781 38.7674C23.0781 38.7674 13.012 49.6618 12.3424 46.9923C11.7365 44.2918 22.2091 36.9833 22.2091 36.9833L23.0781 38.7674V38.7674Z" fill="#695154"/>
<path d="M23.7373 27.173C23.7373 27.173 16.133 17.7116 12.9128 19.5167C9.7564 21.2906 23.3401 28.7854 23.3401 28.7854L23.7373 27.173Z" fill="#695154"/>
<path d="M32.21 23.2037C32.5923 23.0175 35.1745 9.38272 33.1078 9.99522C31.0411 10.6077 30.9128 22.9683 30.9128 22.9683L32.21 23.2037Z" fill="#695154"/>
<path d="M41.4581 26.9766C41.4581 26.9766 55.515 19.42 53.4305 18.701C51.3459 17.9821 40.2329 25.9178 40.2329 25.9178L41.4581 26.9766Z" fill="#695154"/>
<path d="M40.8955 35.3705C41.1831 35.1516 55.0527 42.586 53.3225 44.3747C51.5286 46.1946 39.4594 36.3065 39.4594 36.3065L40.8955 35.3705Z" fill="#695154"/>
<path d="M41.9377 35.73C35.3745 45.076 12.8915 42.9407 21.6983 28.1661C30.5377 13.2967 48.501 26.384 41.9377 35.73Z" fill="#413130"/>
<path d="M40.7062 32.2305C38.5163 41.6536 23.4356 40.9582 23.1161 32.0479C22.7003 20.1888 42.9287 22.7127 40.7062 32.2305Z" stroke="#695154" stroke-width="1.9717" stroke-miterlimit="10"/>
</g>
<defs>
<clipPath id="clip0_10_67">
<rect width="65" height="65" fill="white"/>
</clipPath>
</defs>
</svg>
