<svg width="65" height="65" viewBox="0 0 65 65" fill="none" xmlns="http://www.w3.org/2000/svg">
<path d="M9.5134 37.664C11.5851 35.1861 20.1907 34.7065 23.2186 34.227C19.7126 33.8273 10.5493 31.909 7.91977 29.3512C1.70463 23.1167 2.50145 13.3652 4.8122 9.04902C7.12296 4.7328 20.9875 1.85532 27.7604 8.56944C33.3381 14.0846 33.4975 24.0759 32.9397 26.0741C33.8162 23.4364 34.6927 12.1663 37.5612 7.85007C40.9078 2.89441 54.6927 3.21413 58.1987 5.69196C61.7046 8.16979 62.3421 16.1628 60.9078 23.1167C59.4736 30.1505 42.6608 32.7083 42.0234 32.7882C41.4656 32.9481 55.6489 34.3069 59.6329 39.0228C63.617 43.6587 62.3421 50.4528 60.9078 56.6074C59.4736 62.762 42.3421 59.5648 36.6847 54.2894C31.107 48.9341 32.86 41.6605 32.86 41.6605C32.86 41.6605 29.354 51.2521 25.37 58.206C21.3859 65.1599 13.6568 60.3641 7.44168 58.7655C1.30622 57.0869 4.17475 43.8985 9.5134 37.664Z" fill="#EF5326"/>
<path d="M30.3102 25.8343C27.6807 26.5537 30.3102 33.1879 32.4616 32.3086C34.613 31.3495 32.9397 25.1149 30.3102 25.8343Z" fill="#222422"/>
<path d="M26.4855 29.9108C24.6528 31.3495 27.2026 34.5467 29.354 34.147C31.5054 33.6675 28.3182 28.3921 26.4855 29.9108Z" fill="#222422"/>
<path d="M36.4456 27.7526C34.2146 28.3921 33.9755 33.1879 35.8082 33.4277C37.6409 33.5875 38.6767 27.1132 36.4456 27.7526Z" fill="#222422"/>
<path d="M32.382 33.4277C30.868 33.9872 31.1867 36.8647 32.9397 36.7048C34.6927 36.6249 33.8959 32.8682 32.382 33.4277Z" fill="#222422"/>
</svg>
