<svg width="65" height="65" viewBox="0 0 65 65" fill="none" xmlns="http://www.w3.org/2000/svg">
<g clip-path="url(#clip0_10_41)">
<path d="M29.0308 40.3968C29.0308 40.3968 -2.09577 42.3708 2.94883 29.6616C7.92549 16.9783 28.3686 29.8561 32.678 34.2403C32.678 34.2403 20.2546 9.32153 29.6439 6.6139C39.0333 3.90626 38.1873 29.0969 36.8723 31.1606C36.8723 31.1606 46.5757 8.00044 57.4926 14.0187C68.4095 20.037 48.5007 36.5958 40.6201 36.9313C40.6201 36.9313 66.5016 36.0901 60.5919 47.955C54.6822 59.8198 35.4565 41.5524 35.4565 41.5524C35.4565 41.5524 29.9551 65.5403 16.6205 59.5023C3.28588 53.4642 29.0308 40.3968 29.0308 40.3968Z" fill="#FBCF08"/>
<path d="M38.2097 25.882C40.6554 24.9526 42.4774 27.7013 40.1035 29.229C37.6357 30.7142 35.7639 26.8113 38.2097 25.882Z" fill="#EF5326"/>
<path d="M30.1413 26.1325C32.729 24.7582 35.4143 26.7096 32.9084 28.9131C30.3766 31.0482 27.6476 27.5494 30.1413 26.1325Z" fill="#EF5326"/>
<path d="M26.1387 29.9214C28.8243 29.2138 30.8959 32.415 28.0465 34.1234C25.197 35.8318 23.4532 30.6291 26.1387 29.9214Z" fill="#EF5326"/>
<path d="M26.8758 32.0657C26.8758 32.0657 31.703 33.516 34.2919 39.1014L34.7575 38.6899C34.7835 38.7582 31.867 32.5152 26.8758 32.0657Z" fill="#EF5326"/>
<path d="M31.2981 27.3353C31.2981 27.3353 32.6659 35.027 34.8514 38.7324L35.395 38.5259C35.395 38.5259 32.1629 30.8387 31.8316 26.8979L31.2981 27.3353Z" fill="#EF5326"/>
<path d="M34.7835 38.7582C34.7835 38.7582 35.192 30.6261 38.1994 28.3102L38.6689 28.5228C38.6689 28.5228 35.4357 31.472 35.2591 38.5775L34.7835 38.7582V38.7582Z" fill="#EF5326"/>
</g>
<defs>
<clipPath id="clip0_10_41">
<rect width="65" height="65" fill="white"/>
</clipPath>
</defs>
</svg>
