<svg width="64" height="63" viewBox="0 0 64 63" fill="none" xmlns="http://www.w3.org/2000/svg">
<g clip-path="url(#clip0_10_57)">
<path d="M19.5824 22.0049C19.5824 22.0049 8.43747 12.5969 17.8797 3.42032C27.2446 -5.7563 31.9657 9.7437 33.0493 18.689C33.0493 18.689 32.2753 0.258626 46.3613 2.41783C60.5247 4.4228 50.0763 21.4651 44.9682 25.0124C44.9682 25.0124 58.5124 19.4601 62.2274 30.2561C65.9424 41.0522 57.3515 46.4502 43.5751 39.9726C43.5751 39.9726 55.4166 54.5472 43.4977 61.179C31.5787 67.8109 30.3404 46.99 30.3404 46.99C30.3404 46.99 26.7028 60.7935 14.1647 57.092C1.62666 53.3905 12.849 39.5099 17.9571 37.8134C17.9571 37.8134 9.36622 42.286 3.17457 35.1143C-3.01708 27.9427 -1.00479 14.2163 19.5824 22.0049Z" fill="#B1BBDF"/>
<path d="M27.4768 26.0149C27.4768 26.0149 16.7962 9.43526 21.0529 7.89297C25.3097 6.35068 29.9534 26.1691 29.9534 26.1691L27.4768 26.0149Z" fill="#5782C2"/>
<path d="M35.2163 26.092C35.2163 26.092 39.4731 5.34817 44.5038 7.73872C49.5345 10.1293 37.5382 27.1716 37.5382 27.1716L35.2163 26.092Z" fill="#5782C2"/>
<path d="M40.3245 29.9477C40.3245 29.9477 57.2741 26.4775 57.7385 31.2586C58.2028 36.0397 41.0984 32.2611 41.0984 32.2611L40.3245 29.9477Z" fill="#5782C2"/>
<path d="M24.6905 28.1741C24.6905 28.1741 4.87726 21.2338 5.10945 27.3258C5.26424 31.2586 23.9166 31.1815 23.9166 31.1815L24.6905 28.1741Z" fill="#5782C2"/>
<path d="M25.1549 35.0372C25.1549 35.0372 8.43747 48.6094 15.6353 50.5372C22.833 52.388 28.1733 36.4253 28.1733 36.4253L25.1549 35.0372Z" fill="#5782C2"/>
<path d="M33.0493 37.3507C33.0493 37.3507 35.6807 58.6342 40.9436 55.7039C46.2839 52.7735 36.4547 36.888 36.4547 36.888L33.0493 37.3507Z" fill="#5782C2"/>
<path d="M36.9964 24.2412C53.6365 29.8706 37.2286 43.5198 26.7802 38.6616C17.4153 34.2661 20.4338 18.689 36.9964 24.2412Z" fill="#212421"/>
</g>
<defs>
<clipPath id="clip0_10_57">
<rect width="63" height="62" fill="white" transform="translate(0.0787354 0.567078)"/>
</clipPath>
</defs>
</svg>
